<svg width="30" height="30" viewBox="0 0 30 30" fill="none" xmlns="http://www.w3.org/2000/svg">
<g clip-path="url(#clip0_146_577)">
<path d="M29.4245 12.811L29.4245 12.8109L17.1869 0.573767C17.1869 0.573753 17.1869 0.573739 17.1869 0.573725C16.6184 0.00498051 15.8613 -0.308594 15.0573 -0.308594C14.2533 -0.308594 13.4962 0.00500118 12.9275 0.573728L0.696213 12.8047L0.871502 12.98L0.696211 12.8047L0.695587 12.8054C0.692355 12.8086 0.686972 12.814 0.681411 12.8198C-0.4849 13.9949 -0.482333 15.8993 0.689075 17.0708C1.22289 17.6048 1.92791 17.9148 2.68114 17.949C2.71522 17.952 2.74936 17.9536 2.7837 17.9536H3.02122V26.7092C3.02122 28.6296 4.58337 30.1915 6.50372 30.1915H11.2915C11.9151 30.1915 12.4204 29.6858 12.4204 29.0626V22.002C12.4204 21.3269 12.9701 20.7773 13.6453 20.7773H16.4693C17.1444 20.7773 17.6939 21.3268 17.6939 22.002V29.0626C17.6939 29.6858 18.1993 30.1915 18.8229 30.1915H23.6106C25.5312 30.1915 27.0931 28.6296 27.0931 26.7092V17.9536H27.2954C28.0992 17.9536 28.8563 17.64 29.4252 17.071L29.4253 17.071C30.5985 15.8972 30.599 13.9879 29.427 12.8134L29.427 12.8134C29.4262 12.8126 29.4254 12.8118 29.4245 12.8109L29.4245 12.811ZM29.4245 12.811C29.4188 12.8054 29.4105 12.7978 29.4 12.79L29.2638 12.9717L29.25 12.99L29.427 12.8134C29.4262 12.8127 29.4254 12.8119 29.4245 12.811ZM2.28596 15.4744L2.28607 15.4745C2.42387 15.6125 2.60735 15.6905 2.80473 15.694L2.28596 15.4744ZM2.28596 15.4744C1.99321 15.1817 1.99216 14.7052 2.28308 14.4109C2.28542 14.4086 2.28764 14.4064 2.28974 14.4042L14.5243 2.17012L14.5244 2.17001M2.28596 15.4744L14.5244 2.17001M14.5244 2.17001C14.667 2.02726 14.8553 1.94922 15.0573 1.94922C15.259 1.94922 15.4474 2.02723 15.5903 2.17011L27.8247 14.4043L27.8304 14.4098L14.5244 2.17001ZM19.9518 27.9336H23.6106C24.2858 27.9336 24.8353 27.3841 24.8353 26.7092V16.8247C24.8353 16.2011 25.3407 15.6958 25.9642 15.6958H27.2954C27.497 15.6958 27.6856 15.6176 27.8286 15.4747C27.8286 15.4747 27.8286 15.4747 27.8286 15.4747M19.9518 27.9336L28.0054 15.6514L27.8286 15.4747M19.9518 27.9336V22.002C19.9518 20.0816 18.3899 18.5195 16.4693 18.5195H13.6453C11.7247 18.5195 10.1626 20.0816 10.1626 22.002V27.9336H6.50372C5.82875 27.9336 5.27903 27.3841 5.27903 26.7092V16.8247C5.27903 16.2011 4.77365 15.6958 4.15012 15.6958H2.84977C2.83591 15.6949 2.82092 15.6942 2.80487 15.694C2.80491 15.694 2.80496 15.694 2.805 15.694L19.9518 27.9336ZM27.8286 15.4747C28.1211 15.1819 28.1222 14.7052 27.8312 14.4106L27.8286 15.4747ZM2.3208 14.3645L2.32079 14.3646C2.3208 14.3645 2.32082 14.3645 2.32083 14.3645L2.3208 14.3645ZM2.28642 14.4075L2.2871 14.4068C2.28687 14.4071 2.28665 14.4073 2.28642 14.4075Z" fill="black" stroke="black" stroke-width="0.5"/>
</g>
<defs>
<clipPath id="clip0_146_577">
<rect width="30" height="30" fill="white"/>
</clipPath>
</defs>
</svg>
